<svg width="1920" height="1080" viewBox="0 0 1920 1080" fill="none" xmlns="http://www.w3.org/2000/svg">
<rect width="1920" height="1080" fill="#1E1E1E"/>
<rect width="1920" height="1080" fill="url(#paint0_linear_0_1)"/>
<g filter="url(#filter0_d_0_1)">
<path d="M946.986 577.354C667.195 707.15 0 527.741 0 527.741V1080H1920V527.741C1525.48 542.615 1226.78 447.558 946.986 577.354Z" fill="#52489C"/>
</g>
<g filter="url(#filter1_d_0_1)">
<path d="M396.805 497H405.887V561.746L405.105 572H396.805V497ZM441.58 545.145V546.17C441.58 550.011 441.124 553.576 440.213 556.863C439.301 560.118 437.967 562.951 436.209 565.359C434.451 567.768 432.303 569.64 429.764 570.975C427.225 572.309 424.311 572.977 421.023 572.977C417.671 572.977 414.725 572.407 412.186 571.268C409.679 570.096 407.563 568.419 405.838 566.238C404.113 564.057 402.729 561.421 401.688 558.328C400.678 555.236 399.979 551.753 399.588 547.879V543.387C399.979 539.48 400.678 535.981 401.688 532.889C402.729 529.796 404.113 527.16 405.838 524.979C407.563 522.765 409.679 521.089 412.186 519.949C414.692 518.777 417.605 518.191 420.926 518.191C424.246 518.191 427.192 518.842 429.764 520.145C432.335 521.414 434.484 523.237 436.209 525.613C437.967 527.99 439.301 530.838 440.213 534.158C441.124 537.446 441.58 541.108 441.58 545.145ZM432.498 546.17V545.145C432.498 542.508 432.254 540.034 431.766 537.723C431.277 535.379 430.496 533.328 429.422 531.57C428.348 529.78 426.932 528.38 425.174 527.371C423.416 526.329 421.251 525.809 418.68 525.809C416.401 525.809 414.415 526.199 412.723 526.98C411.062 527.762 409.646 528.82 408.475 530.154C407.303 531.456 406.342 532.954 405.594 534.646C404.878 536.307 404.34 538.032 403.982 539.822V551.59C404.503 553.868 405.35 556.066 406.521 558.182C407.726 560.265 409.321 561.974 411.307 563.309C413.325 564.643 415.815 565.311 418.777 565.311C421.219 565.311 423.302 564.822 425.027 563.846C426.785 562.837 428.201 561.453 429.275 559.695C430.382 557.938 431.196 555.903 431.717 553.592C432.238 551.281 432.498 548.807 432.498 546.17ZM484.158 562.967V535.77C484.158 533.686 483.735 531.88 482.889 530.35C482.075 528.787 480.838 527.583 479.178 526.736C477.518 525.89 475.467 525.467 473.025 525.467C470.747 525.467 468.745 525.857 467.02 526.639C465.327 527.42 463.992 528.445 463.016 529.715C462.072 530.984 461.6 532.352 461.6 533.816H452.566C452.566 531.928 453.055 530.057 454.031 528.201C455.008 526.346 456.408 524.669 458.23 523.172C460.086 521.642 462.299 520.438 464.871 519.559C467.475 518.647 470.372 518.191 473.562 518.191C477.404 518.191 480.789 518.842 483.719 520.145C486.681 521.447 488.992 523.416 490.652 526.053C492.345 528.657 493.191 531.928 493.191 535.867V560.477C493.191 562.234 493.338 564.106 493.631 566.092C493.956 568.077 494.428 569.786 495.047 571.219V572H485.623C485.167 570.958 484.809 569.575 484.549 567.85C484.288 566.092 484.158 564.464 484.158 562.967ZM485.721 539.969L485.818 546.316H476.688C474.116 546.316 471.821 546.528 469.803 546.951C467.785 547.342 466.092 547.944 464.725 548.758C463.357 549.572 462.316 550.597 461.6 551.834C460.883 553.038 460.525 554.454 460.525 556.082C460.525 557.742 460.9 559.256 461.648 560.623C462.397 561.99 463.52 563.081 465.018 563.895C466.548 564.676 468.419 565.066 470.633 565.066C473.4 565.066 475.841 564.48 477.957 563.309C480.073 562.137 481.749 560.704 482.986 559.012C484.256 557.319 484.939 555.675 485.037 554.08L488.895 558.426C488.667 559.793 488.048 561.307 487.039 562.967C486.03 564.627 484.679 566.222 482.986 567.752C481.326 569.249 479.34 570.503 477.029 571.512C474.751 572.488 472.179 572.977 469.314 572.977C465.734 572.977 462.592 572.277 459.891 570.877C457.221 569.477 455.138 567.605 453.641 565.262C452.176 562.885 451.443 560.232 451.443 557.303C451.443 554.471 451.997 551.98 453.104 549.832C454.21 547.651 455.805 545.844 457.889 544.412C459.972 542.947 462.479 541.84 465.408 541.092C468.338 540.343 471.609 539.969 475.223 539.969H485.721ZM528.543 565.555C530.691 565.555 532.677 565.115 534.5 564.236C536.323 563.357 537.82 562.153 538.992 560.623C540.164 559.061 540.831 557.286 540.994 555.301H549.588C549.425 558.426 548.367 561.339 546.414 564.041C544.493 566.71 541.971 568.875 538.846 570.535C535.721 572.163 532.286 572.977 528.543 572.977C524.572 572.977 521.105 572.277 518.143 570.877C515.213 569.477 512.771 567.557 510.818 565.115C508.898 562.674 507.449 559.874 506.473 556.717C505.529 553.527 505.057 550.158 505.057 546.609V544.559C505.057 541.01 505.529 537.658 506.473 534.5C507.449 531.31 508.898 528.494 510.818 526.053C512.771 523.611 515.213 521.691 518.143 520.291C521.105 518.891 524.572 518.191 528.543 518.191C532.677 518.191 536.29 519.038 539.383 520.73C542.475 522.391 544.9 524.669 546.658 527.566C548.449 530.431 549.425 533.686 549.588 537.332H540.994C540.831 535.151 540.213 533.182 539.139 531.424C538.097 529.666 536.665 528.266 534.842 527.225C533.051 526.15 530.952 525.613 528.543 525.613C525.776 525.613 523.449 526.167 521.561 527.273C519.705 528.348 518.224 529.812 517.117 531.668C516.043 533.491 515.262 535.525 514.773 537.771C514.318 539.985 514.09 542.247 514.09 544.559V546.609C514.09 548.921 514.318 551.199 514.773 553.445C515.229 555.691 515.994 557.726 517.068 559.549C518.175 561.372 519.656 562.837 521.512 563.943C523.4 565.018 525.743 565.555 528.543 565.555ZM568.826 497V572H559.744V497H568.826ZM601.102 519.168L578.055 543.826L565.164 557.205L564.432 547.586L573.66 536.551L590.066 519.168H601.102ZM592.85 572L574.002 546.805L578.689 538.748L603.494 572H592.85ZM643.68 519.168H651.883V570.877C651.883 575.532 650.939 579.503 649.051 582.791C647.163 586.079 644.526 588.569 641.141 590.262C637.788 591.987 633.914 592.85 629.52 592.85C627.697 592.85 625.548 592.557 623.074 591.971C620.633 591.417 618.224 590.457 615.848 589.09C613.504 587.755 611.535 585.949 609.939 583.67L614.676 578.299C616.889 580.968 619.201 582.824 621.609 583.865C624.051 584.907 626.46 585.428 628.836 585.428C631.701 585.428 634.174 584.891 636.258 583.816C638.341 582.742 639.952 581.147 641.092 579.031C642.264 576.948 642.85 574.376 642.85 571.316V530.789L643.68 519.168ZM607.303 546.17V545.145C607.303 541.108 607.775 537.446 608.719 534.158C609.695 530.838 611.079 527.99 612.869 525.613C614.692 523.237 616.889 521.414 619.461 520.145C622.033 518.842 624.93 518.191 628.152 518.191C631.473 518.191 634.37 518.777 636.844 519.949C639.35 521.089 641.466 522.765 643.191 524.979C644.949 527.16 646.333 529.796 647.342 532.889C648.351 535.981 649.051 539.48 649.441 543.387V547.879C649.083 551.753 648.383 555.236 647.342 558.328C646.333 561.421 644.949 564.057 643.191 566.238C641.466 568.419 639.35 570.096 636.844 571.268C634.337 572.407 631.408 572.977 628.055 572.977C624.897 572.977 622.033 572.309 619.461 570.975C616.922 569.64 614.741 567.768 612.918 565.359C611.095 562.951 609.695 560.118 608.719 556.863C607.775 553.576 607.303 550.011 607.303 546.17ZM616.336 545.145V546.17C616.336 548.807 616.596 551.281 617.117 553.592C617.671 555.903 618.501 557.938 619.607 559.695C620.747 561.453 622.195 562.837 623.953 563.846C625.711 564.822 627.811 565.311 630.252 565.311C633.247 565.311 635.721 564.676 637.674 563.406C639.627 562.137 641.173 560.46 642.312 558.377C643.484 556.294 644.396 554.031 645.047 551.59V539.822C644.689 538.032 644.135 536.307 643.387 534.646C642.671 532.954 641.727 531.456 640.555 530.154C639.415 528.82 637.999 527.762 636.307 526.98C634.614 526.199 632.628 525.809 630.35 525.809C627.876 525.809 625.743 526.329 623.953 527.371C622.195 528.38 620.747 529.78 619.607 531.57C618.501 533.328 617.671 535.379 617.117 537.723C616.596 540.034 616.336 542.508 616.336 545.145ZM674.637 527.469V572H665.604V519.168H674.393L674.637 527.469ZM691.141 518.875L691.092 527.273C690.343 527.111 689.627 527.013 688.943 526.98C688.292 526.915 687.544 526.883 686.697 526.883C684.614 526.883 682.775 527.208 681.18 527.859C679.585 528.51 678.234 529.422 677.127 530.594C676.02 531.766 675.141 533.165 674.49 534.793C673.872 536.388 673.465 538.146 673.27 540.066L670.73 541.531C670.73 538.341 671.04 535.346 671.658 532.547C672.309 529.747 673.302 527.273 674.637 525.125C675.971 522.944 677.664 521.251 679.715 520.047C681.798 518.81 684.272 518.191 687.137 518.191C687.788 518.191 688.536 518.273 689.383 518.436C690.229 518.566 690.815 518.712 691.141 518.875ZM696.121 546.17V545.047C696.121 541.238 696.674 537.706 697.781 534.451C698.888 531.163 700.483 528.315 702.566 525.906C704.65 523.465 707.173 521.577 710.135 520.242C713.097 518.875 716.417 518.191 720.096 518.191C723.807 518.191 727.143 518.875 730.105 520.242C733.1 521.577 735.639 523.465 737.723 525.906C739.839 528.315 741.45 531.163 742.557 534.451C743.663 537.706 744.217 541.238 744.217 545.047V546.17C744.217 549.979 743.663 553.51 742.557 556.766C741.45 560.021 739.839 562.869 737.723 565.311C735.639 567.719 733.117 569.607 730.154 570.975C727.225 572.309 723.904 572.977 720.193 572.977C716.482 572.977 713.146 572.309 710.184 570.975C707.221 569.607 704.682 567.719 702.566 565.311C700.483 562.869 698.888 560.021 697.781 556.766C696.674 553.51 696.121 549.979 696.121 546.17ZM705.154 545.047V546.17C705.154 548.807 705.464 551.297 706.082 553.641C706.701 555.952 707.628 558.003 708.865 559.793C710.135 561.583 711.714 562.999 713.602 564.041C715.49 565.05 717.687 565.555 720.193 565.555C722.667 565.555 724.832 565.05 726.688 564.041C728.576 562.999 730.138 561.583 731.375 559.793C732.612 558.003 733.54 555.952 734.158 553.641C734.809 551.297 735.135 548.807 735.135 546.17V545.047C735.135 542.443 734.809 539.985 734.158 537.674C733.54 535.33 732.596 533.263 731.326 531.473C730.089 529.65 728.527 528.217 726.639 527.176C724.783 526.134 722.602 525.613 720.096 525.613C717.622 525.613 715.441 526.134 713.553 527.176C711.697 528.217 710.135 529.65 708.865 531.473C707.628 533.263 706.701 535.33 706.082 537.674C705.464 539.985 705.154 542.443 705.154 545.047ZM787.869 559.793V519.168H796.951V572H788.309L787.869 559.793ZM789.578 548.66L793.338 548.562C793.338 552.078 792.964 555.333 792.215 558.328C791.499 561.29 790.327 563.862 788.699 566.043C787.072 568.224 784.939 569.933 782.303 571.17C779.666 572.374 776.46 572.977 772.684 572.977C770.112 572.977 767.752 572.602 765.604 571.854C763.488 571.105 761.665 569.949 760.135 568.387C758.605 566.824 757.417 564.79 756.57 562.283C755.757 559.777 755.35 556.766 755.35 553.25V519.168H764.383V553.348C764.383 555.724 764.643 557.693 765.164 559.256C765.717 560.786 766.45 562.007 767.361 562.918C768.305 563.797 769.347 564.415 770.486 564.773C771.658 565.132 772.863 565.311 774.1 565.311C777.941 565.311 780.984 564.578 783.23 563.113C785.477 561.616 787.088 559.614 788.064 557.107C789.074 554.568 789.578 551.753 789.578 548.66ZM819.754 530.447V572H810.721V519.168H819.266L819.754 530.447ZM817.605 543.582L813.846 543.436C813.878 539.822 814.415 536.486 815.457 533.426C816.499 530.333 817.964 527.648 819.852 525.369C821.74 523.09 823.986 521.333 826.59 520.096C829.227 518.826 832.14 518.191 835.33 518.191C837.934 518.191 840.278 518.549 842.361 519.266C844.445 519.949 846.219 521.056 847.684 522.586C849.181 524.116 850.32 526.102 851.102 528.543C851.883 530.952 852.273 533.898 852.273 537.381V572H843.191V537.283C843.191 534.516 842.785 532.303 841.971 530.643C841.157 528.95 839.969 527.729 838.406 526.98C836.844 526.199 834.923 525.809 832.645 525.809C830.398 525.809 828.348 526.281 826.492 527.225C824.669 528.169 823.09 529.471 821.756 531.131C820.454 532.791 819.428 534.695 818.68 536.844C817.964 538.96 817.605 541.206 817.605 543.582ZM899.295 561.746V497H908.377V572H900.076L899.295 561.746ZM863.748 546.17V545.145C863.748 541.108 864.236 537.446 865.213 534.158C866.222 530.838 867.638 527.99 869.461 525.613C871.316 523.237 873.514 521.414 876.053 520.145C878.624 518.842 881.489 518.191 884.646 518.191C887.967 518.191 890.864 518.777 893.338 519.949C895.844 521.089 897.96 522.765 899.686 524.979C901.443 527.16 902.827 529.796 903.836 532.889C904.845 535.981 905.545 539.48 905.936 543.387V547.879C905.577 551.753 904.878 555.236 903.836 558.328C902.827 561.421 901.443 564.057 899.686 566.238C897.96 568.419 895.844 570.096 893.338 571.268C890.831 572.407 887.902 572.977 884.549 572.977C881.456 572.977 878.624 572.309 876.053 570.975C873.514 569.64 871.316 567.768 869.461 565.359C867.638 562.951 866.222 560.118 865.213 556.863C864.236 553.576 863.748 550.011 863.748 546.17ZM872.83 545.145V546.17C872.83 548.807 873.09 551.281 873.611 553.592C874.165 555.903 875.011 557.938 876.15 559.695C877.29 561.453 878.738 562.837 880.496 563.846C882.254 564.822 884.354 565.311 886.795 565.311C889.79 565.311 892.247 564.676 894.168 563.406C896.121 562.137 897.684 560.46 898.855 558.377C900.027 556.294 900.939 554.031 901.59 551.59V539.822C901.199 538.032 900.63 536.307 899.881 534.646C899.165 532.954 898.221 531.456 897.049 530.154C895.91 528.82 894.493 527.762 892.801 526.98C891.141 526.199 889.171 525.809 886.893 525.809C884.419 525.809 882.286 526.329 880.496 527.371C878.738 528.38 877.29 529.78 876.15 531.57C875.011 533.328 874.165 535.379 873.611 537.723C873.09 540.034 872.83 542.508 872.83 545.145ZM944.852 546.17V545.047C944.852 541.238 945.405 537.706 946.512 534.451C947.618 531.163 949.214 528.315 951.297 525.906C953.38 523.465 955.903 521.577 958.865 520.242C961.827 518.875 965.148 518.191 968.826 518.191C972.537 518.191 975.874 518.875 978.836 520.242C981.831 521.577 984.37 523.465 986.453 525.906C988.569 528.315 990.18 531.163 991.287 534.451C992.394 537.706 992.947 541.238 992.947 545.047V546.17C992.947 549.979 992.394 553.51 991.287 556.766C990.18 560.021 988.569 562.869 986.453 565.311C984.37 567.719 981.847 569.607 978.885 570.975C975.955 572.309 972.635 572.977 968.924 572.977C965.213 572.977 961.876 572.309 958.914 570.975C955.952 569.607 953.413 567.719 951.297 565.311C949.214 562.869 947.618 560.021 946.512 556.766C945.405 553.51 944.852 549.979 944.852 546.17ZM953.885 545.047V546.17C953.885 548.807 954.194 551.297 954.812 553.641C955.431 555.952 956.359 558.003 957.596 559.793C958.865 561.583 960.444 562.999 962.332 564.041C964.22 565.05 966.417 565.555 968.924 565.555C971.398 565.555 973.562 565.05 975.418 564.041C977.306 562.999 978.868 561.583 980.105 559.793C981.342 558.003 982.27 555.952 982.889 553.641C983.54 551.297 983.865 548.807 983.865 546.17V545.047C983.865 542.443 983.54 539.985 982.889 537.674C982.27 535.33 981.326 533.263 980.057 531.473C978.82 529.65 977.257 528.217 975.369 527.176C973.514 526.134 971.333 525.613 968.826 525.613C966.352 525.613 964.171 526.134 962.283 527.176C960.428 528.217 958.865 529.65 957.596 531.473C956.359 533.263 955.431 535.33 954.812 537.674C954.194 539.985 953.885 542.443 953.885 545.047ZM1013.31 527.469V572H1004.28V519.168H1013.06L1013.31 527.469ZM1029.81 518.875L1029.76 527.273C1029.01 527.111 1028.3 527.013 1027.62 526.98C1026.96 526.915 1026.22 526.883 1025.37 526.883C1023.29 526.883 1021.45 527.208 1019.85 527.859C1018.26 528.51 1016.91 529.422 1015.8 530.594C1014.69 531.766 1013.81 533.165 1013.16 534.793C1012.54 536.388 1012.14 538.146 1011.94 540.066L1009.4 541.531C1009.4 538.341 1009.71 535.346 1010.33 532.547C1010.98 529.747 1011.97 527.273 1013.31 525.125C1014.64 522.944 1016.34 521.251 1018.39 520.047C1020.47 518.81 1022.94 518.191 1025.81 518.191C1026.46 518.191 1027.21 518.273 1028.05 518.436C1028.9 518.566 1029.49 518.712 1029.81 518.875ZM1093.73 557.986C1093.73 556.684 1093.44 555.48 1092.85 554.373C1092.3 553.234 1091.14 552.208 1089.38 551.297C1087.66 550.353 1085.05 549.539 1081.57 548.855C1078.64 548.237 1075.99 547.505 1073.61 546.658C1071.27 545.812 1069.27 544.786 1067.61 543.582C1065.98 542.378 1064.72 540.962 1063.85 539.334C1062.97 537.706 1062.53 535.802 1062.53 533.621C1062.53 531.538 1062.98 529.568 1063.89 527.713C1064.84 525.857 1066.16 524.214 1067.85 522.781C1069.57 521.349 1071.64 520.226 1074.05 519.412C1076.46 518.598 1079.15 518.191 1082.11 518.191C1086.34 518.191 1089.95 518.94 1092.95 520.438C1095.94 521.935 1098.24 523.937 1099.83 526.443C1101.43 528.917 1102.22 531.668 1102.22 534.695H1093.19C1093.19 533.23 1092.75 531.814 1091.87 530.447C1091.03 529.048 1089.77 527.892 1088.11 526.98C1086.49 526.069 1084.48 525.613 1082.11 525.613C1079.6 525.613 1077.57 526.004 1076 526.785C1074.47 527.534 1073.35 528.494 1072.63 529.666C1071.95 530.838 1071.61 532.075 1071.61 533.377C1071.61 534.354 1071.77 535.232 1072.1 536.014C1072.46 536.762 1073.07 537.462 1073.95 538.113C1074.83 538.732 1076.07 539.318 1077.66 539.871C1079.26 540.424 1081.29 540.978 1083.77 541.531C1088.1 542.508 1091.66 543.68 1094.46 545.047C1097.26 546.414 1099.34 548.09 1100.71 550.076C1102.08 552.062 1102.76 554.471 1102.76 557.303C1102.76 559.614 1102.27 561.73 1101.3 563.65C1100.35 565.571 1098.97 567.231 1097.15 568.631C1095.36 569.998 1093.21 571.072 1090.7 571.854C1088.23 572.602 1085.44 572.977 1082.35 572.977C1077.7 572.977 1073.76 572.146 1070.54 570.486C1067.31 568.826 1064.87 566.678 1063.21 564.041C1061.55 561.404 1060.72 558.621 1060.72 555.691H1069.8C1069.93 558.165 1070.65 560.135 1071.95 561.6C1073.25 563.032 1074.85 564.057 1076.74 564.676C1078.62 565.262 1080.5 565.555 1082.35 565.555C1084.83 565.555 1086.89 565.229 1088.55 564.578C1090.25 563.927 1091.53 563.032 1092.41 561.893C1093.29 560.753 1093.73 559.451 1093.73 557.986ZM1112.23 546.17V545.047C1112.23 541.238 1112.79 537.706 1113.89 534.451C1115 531.163 1116.6 528.315 1118.68 525.906C1120.76 523.465 1123.29 521.577 1126.25 520.242C1129.21 518.875 1132.53 518.191 1136.21 518.191C1139.92 518.191 1143.26 518.875 1146.22 520.242C1149.21 521.577 1151.75 523.465 1153.84 525.906C1155.95 528.315 1157.56 531.163 1158.67 534.451C1159.78 537.706 1160.33 541.238 1160.33 545.047V546.17C1160.33 549.979 1159.78 553.51 1158.67 556.766C1157.56 560.021 1155.95 562.869 1153.84 565.311C1151.75 567.719 1149.23 569.607 1146.27 570.975C1143.34 572.309 1140.02 572.977 1136.31 572.977C1132.6 572.977 1129.26 572.309 1126.3 570.975C1123.33 569.607 1120.8 567.719 1118.68 565.311C1116.6 562.869 1115 560.021 1113.89 556.766C1112.79 553.51 1112.23 549.979 1112.23 546.17ZM1121.27 545.047V546.17C1121.27 548.807 1121.58 551.297 1122.2 553.641C1122.81 555.952 1123.74 558.003 1124.98 559.793C1126.25 561.583 1127.83 562.999 1129.71 564.041C1131.6 565.05 1133.8 565.555 1136.31 565.555C1138.78 565.555 1140.95 565.05 1142.8 564.041C1144.69 562.999 1146.25 561.583 1147.49 559.793C1148.73 558.003 1149.65 555.952 1150.27 553.641C1150.92 551.297 1151.25 548.807 1151.25 546.17V545.047C1151.25 542.443 1150.92 539.985 1150.27 537.674C1149.65 535.33 1148.71 533.263 1147.44 531.473C1146.2 529.65 1144.64 528.217 1142.75 527.176C1140.9 526.134 1138.72 525.613 1136.21 525.613C1133.74 525.613 1131.55 526.134 1129.67 527.176C1127.81 528.217 1126.25 529.65 1124.98 531.473C1123.74 533.263 1122.81 535.33 1122.2 537.674C1121.58 539.985 1121.27 542.443 1121.27 545.047ZM1180.64 529.666V572H1171.56V519.168H1180.15L1180.64 529.666ZM1178.79 543.582L1174.59 543.436C1174.62 539.822 1175.09 536.486 1176 533.426C1176.92 530.333 1178.27 527.648 1180.06 525.369C1181.85 523.09 1184.08 521.333 1186.75 520.096C1189.42 518.826 1192.51 518.191 1196.02 518.191C1198.5 518.191 1200.78 518.549 1202.86 519.266C1204.94 519.949 1206.75 521.04 1208.28 522.537C1209.81 524.035 1211 525.955 1211.84 528.299C1212.69 530.643 1213.11 533.475 1213.11 536.795V572H1204.08V537.234C1204.08 534.467 1203.61 532.254 1202.66 530.594C1201.75 528.934 1200.45 527.729 1198.76 526.98C1197.07 526.199 1195.08 525.809 1192.8 525.809C1190.13 525.809 1187.9 526.281 1186.11 527.225C1184.32 528.169 1182.89 529.471 1181.81 531.131C1180.74 532.791 1179.96 534.695 1179.47 536.844C1179.01 538.96 1178.79 541.206 1178.79 543.582ZM1213.02 538.602L1206.96 540.457C1206.99 537.56 1207.47 534.777 1208.38 532.107C1209.32 529.438 1210.67 527.062 1212.43 524.979C1214.22 522.895 1216.42 521.251 1219.02 520.047C1221.63 518.81 1224.6 518.191 1227.96 518.191C1230.79 518.191 1233.3 518.566 1235.48 519.314C1237.69 520.063 1239.55 521.219 1241.04 522.781C1242.57 524.311 1243.73 526.281 1244.51 528.689C1245.29 531.098 1245.68 533.963 1245.68 537.283V572H1236.6V537.186C1236.6 534.223 1236.13 531.928 1235.18 530.301C1234.27 528.641 1232.97 527.485 1231.28 526.834C1229.62 526.15 1227.63 525.809 1225.32 525.809C1223.33 525.809 1221.58 526.15 1220.05 526.834C1218.52 527.518 1217.23 528.462 1216.19 529.666C1215.15 530.838 1214.35 532.189 1213.8 533.719C1213.28 535.249 1213.02 536.876 1213.02 538.602ZM1281.28 572.977C1277.6 572.977 1274.26 572.358 1271.27 571.121C1268.31 569.852 1265.75 568.077 1263.6 565.799C1261.49 563.52 1259.86 560.818 1258.72 557.693C1257.58 554.568 1257.01 551.15 1257.01 547.439V545.389C1257.01 541.092 1257.64 537.267 1258.91 533.914C1260.18 530.529 1261.91 527.664 1264.09 525.32C1266.27 522.977 1268.74 521.202 1271.51 519.998C1274.28 518.794 1277.14 518.191 1280.11 518.191C1283.88 518.191 1287.14 518.842 1289.87 520.145C1292.64 521.447 1294.9 523.27 1296.66 525.613C1298.42 527.924 1299.72 530.659 1300.56 533.816C1301.41 536.941 1301.83 540.359 1301.83 544.07V548.123H1262.38V540.75H1292.8V540.066C1292.67 537.723 1292.18 535.444 1291.34 533.23C1290.52 531.017 1289.22 529.194 1287.43 527.762C1285.64 526.329 1283.2 525.613 1280.11 525.613C1278.05 525.613 1276.17 526.053 1274.44 526.932C1272.72 527.778 1271.24 529.048 1270 530.74C1268.76 532.433 1267.8 534.5 1267.12 536.941C1266.43 539.383 1266.09 542.199 1266.09 545.389V547.439C1266.09 549.946 1266.43 552.306 1267.12 554.52C1267.83 556.701 1268.86 558.621 1270.19 560.281C1271.56 561.941 1273.2 563.243 1275.12 564.188C1277.08 565.132 1279.29 565.604 1281.77 565.604C1284.96 565.604 1287.66 564.952 1289.87 563.65C1292.08 562.348 1294.02 560.607 1295.68 558.426L1301.15 562.771C1300.01 564.497 1298.56 566.141 1296.8 567.703C1295.05 569.266 1292.88 570.535 1290.31 571.512C1287.77 572.488 1284.76 572.977 1281.28 572.977ZM1334.5 519.168V526.102H1305.94V519.168H1334.5ZM1315.6 506.326H1324.64V558.914C1324.64 560.704 1324.91 562.055 1325.47 562.967C1326.02 563.878 1326.74 564.48 1327.62 564.773C1328.49 565.066 1329.44 565.213 1330.45 565.213C1331.2 565.213 1331.98 565.148 1332.79 565.018C1333.64 564.855 1334.27 564.725 1334.7 564.627L1334.74 572C1334.03 572.228 1333.08 572.439 1331.91 572.635C1330.77 572.863 1329.39 572.977 1327.76 572.977C1325.55 572.977 1323.51 572.537 1321.66 571.658C1319.8 570.779 1318.32 569.314 1317.21 567.264C1316.14 565.18 1315.6 562.381 1315.6 558.865V506.326ZM1354.13 497V572H1345.1V497H1354.13ZM1351.98 543.582L1348.22 543.436C1348.25 539.822 1348.79 536.486 1349.83 533.426C1350.87 530.333 1352.34 527.648 1354.23 525.369C1356.11 523.09 1358.36 521.333 1360.96 520.096C1363.6 518.826 1366.51 518.191 1369.71 518.191C1372.31 518.191 1374.65 518.549 1376.74 519.266C1378.82 519.949 1380.59 521.056 1382.06 522.586C1383.56 524.116 1384.7 526.102 1385.48 528.543C1386.26 530.952 1386.65 533.898 1386.65 537.381V572H1377.57V537.283C1377.57 534.516 1377.16 532.303 1376.35 530.643C1375.53 528.95 1374.34 527.729 1372.78 526.98C1371.22 526.199 1369.3 525.809 1367.02 525.809C1364.77 525.809 1362.72 526.281 1360.87 527.225C1359.04 528.169 1357.47 529.471 1356.13 531.131C1354.83 532.791 1353.8 534.695 1353.05 536.844C1352.34 538.96 1351.98 541.206 1351.98 543.582ZM1409.99 519.168V572H1400.91V519.168H1409.99ZM1400.22 505.154C1400.22 503.689 1400.66 502.452 1401.54 501.443C1402.45 500.434 1403.79 499.93 1405.54 499.93C1407.27 499.93 1408.59 500.434 1409.5 501.443C1410.44 502.452 1410.92 503.689 1410.92 505.154C1410.92 506.554 1410.44 507.758 1409.5 508.768C1408.59 509.744 1407.27 510.232 1405.54 510.232C1403.79 510.232 1402.45 509.744 1401.54 508.768C1400.66 507.758 1400.22 506.554 1400.22 505.154ZM1433.52 530.447V572H1424.49V519.168H1433.04L1433.52 530.447ZM1431.38 543.582L1427.62 543.436C1427.65 539.822 1428.18 536.486 1429.23 533.426C1430.27 530.333 1431.73 527.648 1433.62 525.369C1435.51 523.09 1437.76 521.333 1440.36 520.096C1443 518.826 1445.91 518.191 1449.1 518.191C1451.7 518.191 1454.05 518.549 1456.13 519.266C1458.21 519.949 1459.99 521.056 1461.45 522.586C1462.95 524.116 1464.09 526.102 1464.87 528.543C1465.65 530.952 1466.04 533.898 1466.04 537.381V572H1456.96V537.283C1456.96 534.516 1456.55 532.303 1455.74 530.643C1454.93 528.95 1453.74 527.729 1452.18 526.98C1450.61 526.199 1448.69 525.809 1446.41 525.809C1444.17 525.809 1442.12 526.281 1440.26 527.225C1438.44 528.169 1436.86 529.471 1435.53 531.131C1434.22 532.791 1433.2 534.695 1432.45 536.844C1431.73 538.96 1431.38 541.206 1431.38 543.582ZM1513.99 519.168H1522.2V570.877C1522.2 575.532 1521.25 579.503 1519.36 582.791C1517.48 586.079 1514.84 588.569 1511.45 590.262C1508.1 591.987 1504.23 592.85 1499.83 592.85C1498.01 592.85 1495.86 592.557 1493.39 591.971C1490.95 591.417 1488.54 590.457 1486.16 589.09C1483.82 587.755 1481.85 585.949 1480.25 583.67L1484.99 578.299C1487.2 580.968 1489.51 582.824 1491.92 583.865C1494.36 584.907 1496.77 585.428 1499.15 585.428C1502.01 585.428 1504.49 584.891 1506.57 583.816C1508.65 582.742 1510.26 581.147 1511.4 579.031C1512.58 576.948 1513.16 574.376 1513.16 571.316V530.789L1513.99 519.168ZM1477.62 546.17V545.145C1477.62 541.108 1478.09 537.446 1479.03 534.158C1480.01 530.838 1481.39 527.99 1483.18 525.613C1485 523.237 1487.2 521.414 1489.77 520.145C1492.35 518.842 1495.24 518.191 1498.46 518.191C1501.79 518.191 1504.68 518.777 1507.16 519.949C1509.66 521.089 1511.78 522.765 1513.5 524.979C1515.26 527.16 1516.65 529.796 1517.65 532.889C1518.66 535.981 1519.36 539.48 1519.75 543.387V547.879C1519.4 551.753 1518.7 555.236 1517.65 558.328C1516.65 561.421 1515.26 564.057 1513.5 566.238C1511.78 568.419 1509.66 570.096 1507.16 571.268C1504.65 572.407 1501.72 572.977 1498.37 572.977C1495.21 572.977 1492.35 572.309 1489.77 570.975C1487.23 569.64 1485.05 567.768 1483.23 565.359C1481.41 562.951 1480.01 560.118 1479.03 556.863C1478.09 553.576 1477.62 550.011 1477.62 546.17ZM1486.65 545.145V546.17C1486.65 548.807 1486.91 551.281 1487.43 553.592C1487.98 555.903 1488.81 557.938 1489.92 559.695C1491.06 561.453 1492.51 562.837 1494.27 563.846C1496.02 564.822 1498.12 565.311 1500.56 565.311C1503.56 565.311 1506.03 564.676 1507.99 563.406C1509.94 562.137 1511.49 560.46 1512.62 558.377C1513.8 556.294 1514.71 554.031 1515.36 551.59V539.822C1515 538.032 1514.45 536.307 1513.7 534.646C1512.98 532.954 1512.04 531.456 1510.87 530.154C1509.73 528.82 1508.31 527.762 1506.62 526.98C1504.93 526.199 1502.94 525.809 1500.66 525.809C1498.19 525.809 1496.06 526.329 1494.27 527.371C1492.51 528.38 1491.06 529.78 1489.92 531.57C1488.81 533.328 1487.98 535.379 1487.43 537.723C1486.91 540.034 1486.65 542.508 1486.65 545.145Z" fill="#50514F"/>
</g>
<path d="M396.805 497H405.887V561.746L405.105 572H396.805V497ZM441.58 545.145V546.17C441.58 550.011 441.124 553.576 440.213 556.863C439.301 560.118 437.967 562.951 436.209 565.359C434.451 567.768 432.303 569.64 429.764 570.975C427.225 572.309 424.311 572.977 421.023 572.977C417.671 572.977 414.725 572.407 412.186 571.268C409.679 570.096 407.563 568.419 405.838 566.238C404.113 564.057 402.729 561.421 401.688 558.328C400.678 555.236 399.979 551.753 399.588 547.879V543.387C399.979 539.48 400.678 535.981 401.688 532.889C402.729 529.796 404.113 527.16 405.838 524.979C407.563 522.765 409.679 521.089 412.186 519.949C414.692 518.777 417.605 518.191 420.926 518.191C424.246 518.191 427.192 518.842 429.764 520.145C432.335 521.414 434.484 523.237 436.209 525.613C437.967 527.99 439.301 530.838 440.213 534.158C441.124 537.446 441.58 541.108 441.58 545.145ZM432.498 546.17V545.145C432.498 542.508 432.254 540.034 431.766 537.723C431.277 535.379 430.496 533.328 429.422 531.57C428.348 529.78 426.932 528.38 425.174 527.371C423.416 526.329 421.251 525.809 418.68 525.809C416.401 525.809 414.415 526.199 412.723 526.98C411.062 527.762 409.646 528.82 408.475 530.154C407.303 531.456 406.342 532.954 405.594 534.646C404.878 536.307 404.34 538.032 403.982 539.822V551.59C404.503 553.868 405.35 556.066 406.521 558.182C407.726 560.265 409.321 561.974 411.307 563.309C413.325 564.643 415.815 565.311 418.777 565.311C421.219 565.311 423.302 564.822 425.027 563.846C426.785 562.837 428.201 561.453 429.275 559.695C430.382 557.938 431.196 555.903 431.717 553.592C432.238 551.281 432.498 548.807 432.498 546.17ZM484.158 562.967V535.77C484.158 533.686 483.735 531.88 482.889 530.35C482.075 528.787 480.838 527.583 479.178 526.736C477.518 525.89 475.467 525.467 473.025 525.467C470.747 525.467 468.745 525.857 467.02 526.639C465.327 527.42 463.992 528.445 463.016 529.715C462.072 530.984 461.6 532.352 461.6 533.816H452.566C452.566 531.928 453.055 530.057 454.031 528.201C455.008 526.346 456.408 524.669 458.23 523.172C460.086 521.642 462.299 520.438 464.871 519.559C467.475 518.647 470.372 518.191 473.562 518.191C477.404 518.191 480.789 518.842 483.719 520.145C486.681 521.447 488.992 523.416 490.652 526.053C492.345 528.657 493.191 531.928 493.191 535.867V560.477C493.191 562.234 493.338 564.106 493.631 566.092C493.956 568.077 494.428 569.786 495.047 571.219V572H485.623C485.167 570.958 484.809 569.575 484.549 567.85C484.288 566.092 484.158 564.464 484.158 562.967ZM485.721 539.969L485.818 546.316H476.688C474.116 546.316 471.821 546.528 469.803 546.951C467.785 547.342 466.092 547.944 464.725 548.758C463.357 549.572 462.316 550.597 461.6 551.834C460.883 553.038 460.525 554.454 460.525 556.082C460.525 557.742 460.9 559.256 461.648 560.623C462.397 561.99 463.52 563.081 465.018 563.895C466.548 564.676 468.419 565.066 470.633 565.066C473.4 565.066 475.841 564.48 477.957 563.309C480.073 562.137 481.749 560.704 482.986 559.012C484.256 557.319 484.939 555.675 485.037 554.08L488.895 558.426C488.667 559.793 488.048 561.307 487.039 562.967C486.03 564.627 484.679 566.222 482.986 567.752C481.326 569.249 479.34 570.503 477.029 571.512C474.751 572.488 472.179 572.977 469.314 572.977C465.734 572.977 462.592 572.277 459.891 570.877C457.221 569.477 455.138 567.605 453.641 565.262C452.176 562.885 451.443 560.232 451.443 557.303C451.443 554.471 451.997 551.98 453.104 549.832C454.21 547.651 455.805 545.844 457.889 544.412C459.972 542.947 462.479 541.84 465.408 541.092C468.338 540.343 471.609 539.969 475.223 539.969H485.721ZM528.543 565.555C530.691 565.555 532.677 565.115 534.5 564.236C536.323 563.357 537.82 562.153 538.992 560.623C540.164 559.061 540.831 557.286 540.994 555.301H549.588C549.425 558.426 548.367 561.339 546.414 564.041C544.493 566.71 541.971 568.875 538.846 570.535C535.721 572.163 532.286 572.977 528.543 572.977C524.572 572.977 521.105 572.277 518.143 570.877C515.213 569.477 512.771 567.557 510.818 565.115C508.898 562.674 507.449 559.874 506.473 556.717C505.529 553.527 505.057 550.158 505.057 546.609V544.559C505.057 541.01 505.529 537.658 506.473 534.5C507.449 531.31 508.898 528.494 510.818 526.053C512.771 523.611 515.213 521.691 518.143 520.291C521.105 518.891 524.572 518.191 528.543 518.191C532.677 518.191 536.29 519.038 539.383 520.73C542.475 522.391 544.9 524.669 546.658 527.566C548.449 530.431 549.425 533.686 549.588 537.332H540.994C540.831 535.151 540.213 533.182 539.139 531.424C538.097 529.666 536.665 528.266 534.842 527.225C533.051 526.15 530.952 525.613 528.543 525.613C525.776 525.613 523.449 526.167 521.561 527.273C519.705 528.348 518.224 529.812 517.117 531.668C516.043 533.491 515.262 535.525 514.773 537.771C514.318 539.985 514.09 542.247 514.09 544.559V546.609C514.09 548.921 514.318 551.199 514.773 553.445C515.229 555.691 515.994 557.726 517.068 559.549C518.175 561.372 519.656 562.837 521.512 563.943C523.4 565.018 525.743 565.555 528.543 565.555ZM568.826 497V572H559.744V497H568.826ZM601.102 519.168L578.055 543.826L565.164 557.205L564.432 547.586L573.66 536.551L590.066 519.168H601.102ZM592.85 572L574.002 546.805L578.689 538.748L603.494 572H592.85ZM643.68 519.168H651.883V570.877C651.883 575.532 650.939 579.503 649.051 582.791C647.163 586.079 644.526 588.569 641.141 590.262C637.788 591.987 633.914 592.85 629.52 592.85C627.697 592.85 625.548 592.557 623.074 591.971C620.633 591.417 618.224 590.457 615.848 589.09C613.504 587.755 611.535 585.949 609.939 583.67L614.676 578.299C616.889 580.968 619.201 582.824 621.609 583.865C624.051 584.907 626.46 585.428 628.836 585.428C631.701 585.428 634.174 584.891 636.258 583.816C638.341 582.742 639.952 581.147 641.092 579.031C642.264 576.948 642.85 574.376 642.85 571.316V530.789L643.68 519.168ZM607.303 546.17V545.145C607.303 541.108 607.775 537.446 608.719 534.158C609.695 530.838 611.079 527.99 612.869 525.613C614.692 523.237 616.889 521.414 619.461 520.145C622.033 518.842 624.93 518.191 628.152 518.191C631.473 518.191 634.37 518.777 636.844 519.949C639.35 521.089 641.466 522.765 643.191 524.979C644.949 527.16 646.333 529.796 647.342 532.889C648.351 535.981 649.051 539.48 649.441 543.387V547.879C649.083 551.753 648.383 555.236 647.342 558.328C646.333 561.421 644.949 564.057 643.191 566.238C641.466 568.419 639.35 570.096 636.844 571.268C634.337 572.407 631.408 572.977 628.055 572.977C624.897 572.977 622.033 572.309 619.461 570.975C616.922 569.64 614.741 567.768 612.918 565.359C611.095 562.951 609.695 560.118 608.719 556.863C607.775 553.576 607.303 550.011 607.303 546.17ZM616.336 545.145V546.17C616.336 548.807 616.596 551.281 617.117 553.592C617.671 555.903 618.501 557.938 619.607 559.695C620.747 561.453 622.195 562.837 623.953 563.846C625.711 564.822 627.811 565.311 630.252 565.311C633.247 565.311 635.721 564.676 637.674 563.406C639.627 562.137 641.173 560.46 642.312 558.377C643.484 556.294 644.396 554.031 645.047 551.59V539.822C644.689 538.032 644.135 536.307 643.387 534.646C642.671 532.954 641.727 531.456 640.555 530.154C639.415 528.82 637.999 527.762 636.307 526.98C634.614 526.199 632.628 525.809 630.35 525.809C627.876 525.809 625.743 526.329 623.953 527.371C622.195 528.38 620.747 529.78 619.607 531.57C618.501 533.328 617.671 535.379 617.117 537.723C616.596 540.034 616.336 542.508 616.336 545.145ZM674.637 527.469V572H665.604V519.168H674.393L674.637 527.469ZM691.141 518.875L691.092 527.273C690.343 527.111 689.627 527.013 688.943 526.98C688.292 526.915 687.544 526.883 686.697 526.883C684.614 526.883 682.775 527.208 681.18 527.859C679.585 528.51 678.234 529.422 677.127 530.594C676.02 531.766 675.141 533.165 674.49 534.793C673.872 536.388 673.465 538.146 673.27 540.066L670.73 541.531C670.73 538.341 671.04 535.346 671.658 532.547C672.309 529.747 673.302 527.273 674.637 525.125C675.971 522.944 677.664 521.251 679.715 520.047C681.798 518.81 684.272 518.191 687.137 518.191C687.788 518.191 688.536 518.273 689.383 518.436C690.229 518.566 690.815 518.712 691.141 518.875ZM696.121 546.17V545.047C696.121 541.238 696.674 537.706 697.781 534.451C698.888 531.163 700.483 528.315 702.566 525.906C704.65 523.465 707.173 521.577 710.135 520.242C713.097 518.875 716.417 518.191 720.096 518.191C723.807 518.191 727.143 518.875 730.105 520.242C733.1 521.577 735.639 523.465 737.723 525.906C739.839 528.315 741.45 531.163 742.557 534.451C743.663 537.706 744.217 541.238 744.217 545.047V546.17C744.217 549.979 743.663 553.51 742.557 556.766C741.45 560.021 739.839 562.869 737.723 565.311C735.639 567.719 733.117 569.607 730.154 570.975C727.225 572.309 723.904 572.977 720.193 572.977C716.482 572.977 713.146 572.309 710.184 570.975C707.221 569.607 704.682 567.719 702.566 565.311C700.483 562.869 698.888 560.021 697.781 556.766C696.674 553.51 696.121 549.979 696.121 546.17ZM705.154 545.047V546.17C705.154 548.807 705.464 551.297 706.082 553.641C706.701 555.952 707.628 558.003 708.865 559.793C710.135 561.583 711.714 562.999 713.602 564.041C715.49 565.05 717.687 565.555 720.193 565.555C722.667 565.555 724.832 565.05 726.688 564.041C728.576 562.999 730.138 561.583 731.375 559.793C732.612 558.003 733.54 555.952 734.158 553.641C734.809 551.297 735.135 548.807 735.135 546.17V545.047C735.135 542.443 734.809 539.985 734.158 537.674C733.54 535.33 732.596 533.263 731.326 531.473C730.089 529.65 728.527 528.217 726.639 527.176C724.783 526.134 722.602 525.613 720.096 525.613C717.622 525.613 715.441 526.134 713.553 527.176C711.697 528.217 710.135 529.65 708.865 531.473C707.628 533.263 706.701 535.33 706.082 537.674C705.464 539.985 705.154 542.443 705.154 545.047ZM787.869 559.793V519.168H796.951V572H788.309L787.869 559.793ZM789.578 548.66L793.338 548.562C793.338 552.078 792.964 555.333 792.215 558.328C791.499 561.29 790.327 563.862 788.699 566.043C787.072 568.224 784.939 569.933 782.303 571.17C779.666 572.374 776.46 572.977 772.684 572.977C770.112 572.977 767.752 572.602 765.604 571.854C763.488 571.105 761.665 569.949 760.135 568.387C758.605 566.824 757.417 564.79 756.57 562.283C755.757 559.777 755.35 556.766 755.35 553.25V519.168H764.383V553.348C764.383 555.724 764.643 557.693 765.164 559.256C765.717 560.786 766.45 562.007 767.361 562.918C768.305 563.797 769.347 564.415 770.486 564.773C771.658 565.132 772.863 565.311 774.1 565.311C777.941 565.311 780.984 564.578 783.23 563.113C785.477 561.616 787.088 559.614 788.064 557.107C789.074 554.568 789.578 551.753 789.578 548.66ZM819.754 530.447V572H810.721V519.168H819.266L819.754 530.447ZM817.605 543.582L813.846 543.436C813.878 539.822 814.415 536.486 815.457 533.426C816.499 530.333 817.964 527.648 819.852 525.369C821.74 523.09 823.986 521.333 826.59 520.096C829.227 518.826 832.14 518.191 835.33 518.191C837.934 518.191 840.278 518.549 842.361 519.266C844.445 519.949 846.219 521.056 847.684 522.586C849.181 524.116 850.32 526.102 851.102 528.543C851.883 530.952 852.273 533.898 852.273 537.381V572H843.191V537.283C843.191 534.516 842.785 532.303 841.971 530.643C841.157 528.95 839.969 527.729 838.406 526.98C836.844 526.199 834.923 525.809 832.645 525.809C830.398 525.809 828.348 526.281 826.492 527.225C824.669 528.169 823.09 529.471 821.756 531.131C820.454 532.791 819.428 534.695 818.68 536.844C817.964 538.96 817.605 541.206 817.605 543.582ZM899.295 561.746V497H908.377V572H900.076L899.295 561.746ZM863.748 546.17V545.145C863.748 541.108 864.236 537.446 865.213 534.158C866.222 530.838 867.638 527.99 869.461 525.613C871.316 523.237 873.514 521.414 876.053 520.145C878.624 518.842 881.489 518.191 884.646 518.191C887.967 518.191 890.864 518.777 893.338 519.949C895.844 521.089 897.96 522.765 899.686 524.979C901.443 527.16 902.827 529.796 903.836 532.889C904.845 535.981 905.545 539.48 905.936 543.387V547.879C905.577 551.753 904.878 555.236 903.836 558.328C902.827 561.421 901.443 564.057 899.686 566.238C897.96 568.419 895.844 570.096 893.338 571.268C890.831 572.407 887.902 572.977 884.549 572.977C881.456 572.977 878.624 572.309 876.053 570.975C873.514 569.64 871.316 567.768 869.461 565.359C867.638 562.951 866.222 560.118 865.213 556.863C864.236 553.576 863.748 550.011 863.748 546.17ZM872.83 545.145V546.17C872.83 548.807 873.09 551.281 873.611 553.592C874.165 555.903 875.011 557.938 876.15 559.695C877.29 561.453 878.738 562.837 880.496 563.846C882.254 564.822 884.354 565.311 886.795 565.311C889.79 565.311 892.247 564.676 894.168 563.406C896.121 562.137 897.684 560.46 898.855 558.377C900.027 556.294 900.939 554.031 901.59 551.59V539.822C901.199 538.032 900.63 536.307 899.881 534.646C899.165 532.954 898.221 531.456 897.049 530.154C895.91 528.82 894.493 527.762 892.801 526.98C891.141 526.199 889.171 525.809 886.893 525.809C884.419 525.809 882.286 526.329 880.496 527.371C878.738 528.38 877.29 529.78 876.15 531.57C875.011 533.328 874.165 535.379 873.611 537.723C873.09 540.034 872.83 542.508 872.83 545.145ZM944.852 546.17V545.047C944.852 541.238 945.405 537.706 946.512 534.451C947.618 531.163 949.214 528.315 951.297 525.906C953.38 523.465 955.903 521.577 958.865 520.242C961.827 518.875 965.148 518.191 968.826 518.191C972.537 518.191 975.874 518.875 978.836 520.242C981.831 521.577 984.37 523.465 986.453 525.906C988.569 528.315 990.18 531.163 991.287 534.451C992.394 537.706 992.947 541.238 992.947 545.047V546.17C992.947 549.979 992.394 553.51 991.287 556.766C990.18 560.021 988.569 562.869 986.453 565.311C984.37 567.719 981.847 569.607 978.885 570.975C975.955 572.309 972.635 572.977 968.924 572.977C965.213 572.977 961.876 572.309 958.914 570.975C955.952 569.607 953.413 567.719 951.297 565.311C949.214 562.869 947.618 560.021 946.512 556.766C945.405 553.51 944.852 549.979 944.852 546.17ZM953.885 545.047V546.17C953.885 548.807 954.194 551.297 954.812 553.641C955.431 555.952 956.359 558.003 957.596 559.793C958.865 561.583 960.444 562.999 962.332 564.041C964.22 565.05 966.417 565.555 968.924 565.555C971.398 565.555 973.562 565.05 975.418 564.041C977.306 562.999 978.868 561.583 980.105 559.793C981.342 558.003 982.27 555.952 982.889 553.641C983.54 551.297 983.865 548.807 983.865 546.17V545.047C983.865 542.443 983.54 539.985 982.889 537.674C982.27 535.33 981.326 533.263 980.057 531.473C978.82 529.65 977.257 528.217 975.369 527.176C973.514 526.134 971.333 525.613 968.826 525.613C966.352 525.613 964.171 526.134 962.283 527.176C960.428 528.217 958.865 529.65 957.596 531.473C956.359 533.263 955.431 535.33 954.812 537.674C954.194 539.985 953.885 542.443 953.885 545.047ZM1013.31 527.469V572H1004.28V519.168H1013.06L1013.31 527.469ZM1029.81 518.875L1029.76 527.273C1029.01 527.111 1028.3 527.013 1027.62 526.98C1026.96 526.915 1026.22 526.883 1025.37 526.883C1023.29 526.883 1021.45 527.208 1019.85 527.859C1018.26 528.51 1016.91 529.422 1015.8 530.594C1014.69 531.766 1013.81 533.165 1013.16 534.793C1012.54 536.388 1012.14 538.146 1011.94 540.066L1009.4 541.531C1009.4 538.341 1009.71 535.346 1010.33 532.547C1010.98 529.747 1011.97 527.273 1013.31 525.125C1014.64 522.944 1016.34 521.251 1018.39 520.047C1020.47 518.81 1022.94 518.191 1025.81 518.191C1026.46 518.191 1027.21 518.273 1028.05 518.436C1028.9 518.566 1029.49 518.712 1029.81 518.875ZM1093.73 557.986C1093.73 556.684 1093.44 555.48 1092.85 554.373C1092.3 553.234 1091.14 552.208 1089.38 551.297C1087.66 550.353 1085.05 549.539 1081.57 548.855C1078.64 548.237 1075.99 547.505 1073.61 546.658C1071.27 545.812 1069.27 544.786 1067.61 543.582C1065.98 542.378 1064.72 540.962 1063.85 539.334C1062.97 537.706 1062.53 535.802 1062.53 533.621C1062.53 531.538 1062.98 529.568 1063.89 527.713C1064.84 525.857 1066.16 524.214 1067.85 522.781C1069.57 521.349 1071.64 520.226 1074.05 519.412C1076.46 518.598 1079.15 518.191 1082.11 518.191C1086.34 518.191 1089.95 518.94 1092.95 520.438C1095.94 521.935 1098.24 523.937 1099.83 526.443C1101.43 528.917 1102.22 531.668 1102.22 534.695H1093.19C1093.19 533.23 1092.75 531.814 1091.87 530.447C1091.03 529.048 1089.77 527.892 1088.11 526.98C1086.49 526.069 1084.48 525.613 1082.11 525.613C1079.6 525.613 1077.57 526.004 1076 526.785C1074.47 527.534 1073.35 528.494 1072.63 529.666C1071.95 530.838 1071.61 532.075 1071.61 533.377C1071.61 534.354 1071.77 535.232 1072.1 536.014C1072.46 536.762 1073.07 537.462 1073.95 538.113C1074.83 538.732 1076.07 539.318 1077.66 539.871C1079.26 540.424 1081.29 540.978 1083.77 541.531C1088.1 542.508 1091.66 543.68 1094.46 545.047C1097.26 546.414 1099.34 548.09 1100.71 550.076C1102.08 552.062 1102.76 554.471 1102.76 557.303C1102.76 559.614 1102.27 561.73 1101.3 563.65C1100.35 565.571 1098.97 567.231 1097.15 568.631C1095.36 569.998 1093.21 571.072 1090.7 571.854C1088.23 572.602 1085.44 572.977 1082.35 572.977C1077.7 572.977 1073.76 572.146 1070.54 570.486C1067.31 568.826 1064.87 566.678 1063.21 564.041C1061.55 561.404 1060.72 558.621 1060.72 555.691H1069.8C1069.93 558.165 1070.65 560.135 1071.95 561.6C1073.25 563.032 1074.85 564.057 1076.74 564.676C1078.62 565.262 1080.5 565.555 1082.35 565.555C1084.83 565.555 1086.89 565.229 1088.55 564.578C1090.25 563.927 1091.53 563.032 1092.41 561.893C1093.29 560.753 1093.73 559.451 1093.73 557.986ZM1112.23 546.17V545.047C1112.23 541.238 1112.79 537.706 1113.89 534.451C1115 531.163 1116.6 528.315 1118.68 525.906C1120.76 523.465 1123.29 521.577 1126.25 520.242C1129.21 518.875 1132.53 518.191 1136.21 518.191C1139.92 518.191 1143.26 518.875 1146.22 520.242C1149.21 521.577 1151.75 523.465 1153.84 525.906C1155.95 528.315 1157.56 531.163 1158.67 534.451C1159.78 537.706 1160.33 541.238 1160.33 545.047V546.17C1160.33 549.979 1159.78 553.51 1158.67 556.766C1157.56 560.021 1155.95 562.869 1153.84 565.311C1151.75 567.719 1149.23 569.607 1146.27 570.975C1143.34 572.309 1140.02 572.977 1136.31 572.977C1132.6 572.977 1129.26 572.309 1126.3 570.975C1123.33 569.607 1120.8 567.719 1118.68 565.311C1116.6 562.869 1115 560.021 1113.89 556.766C1112.79 553.51 1112.23 549.979 1112.23 546.17ZM1121.27 545.047V546.17C1121.27 548.807 1121.58 551.297 1122.2 553.641C1122.81 555.952 1123.74 558.003 1124.98 559.793C1126.25 561.583 1127.83 562.999 1129.71 564.041C1131.6 565.05 1133.8 565.555 1136.31 565.555C1138.78 565.555 1140.95 565.05 1142.8 564.041C1144.69 562.999 1146.25 561.583 1147.49 559.793C1148.73 558.003 1149.65 555.952 1150.27 553.641C1150.92 551.297 1151.25 548.807 1151.25 546.17V545.047C1151.25 542.443 1150.92 539.985 1150.27 537.674C1149.65 535.33 1148.71 533.263 1147.44 531.473C1146.2 529.65 1144.64 528.217 1142.75 527.176C1140.9 526.134 1138.72 525.613 1136.21 525.613C1133.74 525.613 1131.55 526.134 1129.67 527.176C1127.81 528.217 1126.25 529.65 1124.98 531.473C1123.74 533.263 1122.81 535.33 1122.2 537.674C1121.58 539.985 1121.27 542.443 1121.27 545.047ZM1180.64 529.666V572H1171.56V519.168H1180.15L1180.64 529.666ZM1178.79 543.582L1174.59 543.436C1174.62 539.822 1175.09 536.486 1176 533.426C1176.92 530.333 1178.27 527.648 1180.06 525.369C1181.85 523.09 1184.08 521.333 1186.75 520.096C1189.42 518.826 1192.51 518.191 1196.02 518.191C1198.5 518.191 1200.78 518.549 1202.86 519.266C1204.94 519.949 1206.75 521.04 1208.28 522.537C1209.81 524.035 1211 525.955 1211.84 528.299C1212.69 530.643 1213.11 533.475 1213.11 536.795V572H1204.08V537.234C1204.08 534.467 1203.61 532.254 1202.66 530.594C1201.75 528.934 1200.45 527.729 1198.76 526.98C1197.07 526.199 1195.08 525.809 1192.8 525.809C1190.13 525.809 1187.9 526.281 1186.11 527.225C1184.32 528.169 1182.89 529.471 1181.81 531.131C1180.74 532.791 1179.96 534.695 1179.47 536.844C1179.01 538.96 1178.79 541.206 1178.79 543.582ZM1213.02 538.602L1206.96 540.457C1206.99 537.56 1207.47 534.777 1208.38 532.107C1209.32 529.438 1210.67 527.062 1212.43 524.979C1214.22 522.895 1216.42 521.251 1219.02 520.047C1221.63 518.81 1224.6 518.191 1227.96 518.191C1230.79 518.191 1233.3 518.566 1235.48 519.314C1237.69 520.063 1239.55 521.219 1241.04 522.781C1242.57 524.311 1243.73 526.281 1244.51 528.689C1245.29 531.098 1245.68 533.963 1245.68 537.283V572H1236.6V537.186C1236.6 534.223 1236.13 531.928 1235.18 530.301C1234.27 528.641 1232.97 527.485 1231.28 526.834C1229.62 526.15 1227.63 525.809 1225.32 525.809C1223.33 525.809 1221.58 526.15 1220.05 526.834C1218.52 527.518 1217.23 528.462 1216.19 529.666C1215.15 530.838 1214.35 532.189 1213.8 533.719C1213.28 535.249 1213.02 536.876 1213.02 538.602ZM1281.28 572.977C1277.6 572.977 1274.26 572.358 1271.27 571.121C1268.31 569.852 1265.75 568.077 1263.6 565.799C1261.49 563.52 1259.86 560.818 1258.72 557.693C1257.58 554.568 1257.01 551.15 1257.01 547.439V545.389C1257.01 541.092 1257.64 537.267 1258.91 533.914C1260.18 530.529 1261.91 527.664 1264.09 525.32C1266.27 522.977 1268.74 521.202 1271.51 519.998C1274.28 518.794 1277.14 518.191 1280.11 518.191C1283.88 518.191 1287.14 518.842 1289.87 520.145C1292.64 521.447 1294.9 523.27 1296.66 525.613C1298.42 527.924 1299.72 530.659 1300.56 533.816C1301.41 536.941 1301.83 540.359 1301.83 544.07V548.123H1262.38V540.75H1292.8V540.066C1292.67 537.723 1292.18 535.444 1291.34 533.23C1290.52 531.017 1289.22 529.194 1287.43 527.762C1285.64 526.329 1283.2 525.613 1280.11 525.613C1278.05 525.613 1276.17 526.053 1274.44 526.932C1272.72 527.778 1271.24 529.048 1270 530.74C1268.76 532.433 1267.8 534.5 1267.12 536.941C1266.43 539.383 1266.09 542.199 1266.09 545.389V547.439C1266.09 549.946 1266.43 552.306 1267.12 554.52C1267.83 556.701 1268.86 558.621 1270.19 560.281C1271.56 561.941 1273.2 563.243 1275.12 564.188C1277.08 565.132 1279.29 565.604 1281.77 565.604C1284.96 565.604 1287.66 564.952 1289.87 563.65C1292.08 562.348 1294.02 560.607 1295.68 558.426L1301.15 562.771C1300.01 564.497 1298.56 566.141 1296.8 567.703C1295.05 569.266 1292.88 570.535 1290.31 571.512C1287.77 572.488 1284.76 572.977 1281.28 572.977ZM1334.5 519.168V526.102H1305.94V519.168H1334.5ZM1315.6 506.326H1324.64V558.914C1324.64 560.704 1324.91 562.055 1325.47 562.967C1326.02 563.878 1326.74 564.48 1327.62 564.773C1328.49 565.066 1329.44 565.213 1330.45 565.213C1331.2 565.213 1331.98 565.148 1332.79 565.018C1333.64 564.855 1334.27 564.725 1334.7 564.627L1334.74 572C1334.03 572.228 1333.08 572.439 1331.91 572.635C1330.77 572.863 1329.39 572.977 1327.76 572.977C1325.55 572.977 1323.51 572.537 1321.66 571.658C1319.8 570.779 1318.32 569.314 1317.21 567.264C1316.14 565.18 1315.6 562.381 1315.6 558.865V506.326ZM1354.13 497V572H1345.1V497H1354.13ZM1351.98 543.582L1348.22 543.436C1348.25 539.822 1348.79 536.486 1349.83 533.426C1350.87 530.333 1352.34 527.648 1354.23 525.369C1356.11 523.09 1358.36 521.333 1360.96 520.096C1363.6 518.826 1366.51 518.191 1369.71 518.191C1372.31 518.191 1374.65 518.549 1376.74 519.266C1378.82 519.949 1380.59 521.056 1382.06 522.586C1383.56 524.116 1384.7 526.102 1385.48 528.543C1386.26 530.952 1386.65 533.898 1386.65 537.381V572H1377.57V537.283C1377.57 534.516 1377.16 532.303 1376.35 530.643C1375.53 528.95 1374.34 527.729 1372.78 526.98C1371.22 526.199 1369.3 525.809 1367.02 525.809C1364.77 525.809 1362.72 526.281 1360.87 527.225C1359.04 528.169 1357.47 529.471 1356.13 531.131C1354.83 532.791 1353.8 534.695 1353.05 536.844C1352.34 538.96 1351.98 541.206 1351.98 543.582ZM1409.99 519.168V572H1400.91V519.168H1409.99ZM1400.22 505.154C1400.22 503.689 1400.66 502.452 1401.54 501.443C1402.45 500.434 1403.79 499.93 1405.54 499.93C1407.27 499.93 1408.59 500.434 1409.5 501.443C1410.44 502.452 1410.92 503.689 1410.92 505.154C1410.92 506.554 1410.44 507.758 1409.5 508.768C1408.59 509.744 1407.27 510.232 1405.54 510.232C1403.79 510.232 1402.45 509.744 1401.54 508.768C1400.66 507.758 1400.22 506.554 1400.22 505.154ZM1433.52 530.447V572H1424.49V519.168H1433.04L1433.52 530.447ZM1431.38 543.582L1427.62 543.436C1427.65 539.822 1428.18 536.486 1429.23 533.426C1430.27 530.333 1431.73 527.648 1433.62 525.369C1435.51 523.09 1437.76 521.333 1440.36 520.096C1443 518.826 1445.91 518.191 1449.1 518.191C1451.7 518.191 1454.05 518.549 1456.13 519.266C1458.21 519.949 1459.99 521.056 1461.45 522.586C1462.95 524.116 1464.09 526.102 1464.87 528.543C1465.65 530.952 1466.04 533.898 1466.04 537.381V572H1456.96V537.283C1456.96 534.516 1456.55 532.303 1455.74 530.643C1454.93 528.95 1453.74 527.729 1452.18 526.98C1450.61 526.199 1448.69 525.809 1446.41 525.809C1444.17 525.809 1442.12 526.281 1440.26 527.225C1438.44 528.169 1436.86 529.471 1435.53 531.131C1434.22 532.791 1433.2 534.695 1432.45 536.844C1431.73 538.96 1431.38 541.206 1431.38 543.582ZM1513.99 519.168H1522.2V570.877C1522.2 575.532 1521.25 579.503 1519.36 582.791C1517.48 586.079 1514.84 588.569 1511.45 590.262C1508.1 591.987 1504.23 592.85 1499.83 592.85C1498.01 592.85 1495.86 592.557 1493.39 591.971C1490.95 591.417 1488.54 590.457 1486.16 589.09C1483.82 587.755 1481.85 585.949 1480.25 583.67L1484.99 578.299C1487.2 580.968 1489.51 582.824 1491.92 583.865C1494.36 584.907 1496.77 585.428 1499.15 585.428C1502.01 585.428 1504.49 584.891 1506.57 583.816C1508.65 582.742 1510.26 581.147 1511.4 579.031C1512.58 576.948 1513.16 574.376 1513.16 571.316V530.789L1513.99 519.168ZM1477.62 546.17V545.145C1477.62 541.108 1478.09 537.446 1479.03 534.158C1480.01 530.838 1481.39 527.99 1483.18 525.613C1485 523.237 1487.2 521.414 1489.77 520.145C1492.35 518.842 1495.24 518.191 1498.46 518.191C1501.79 518.191 1504.68 518.777 1507.16 519.949C1509.66 521.089 1511.78 522.765 1513.5 524.979C1515.26 527.16 1516.65 529.796 1517.65 532.889C1518.66 535.981 1519.36 539.48 1519.75 543.387V547.879C1519.4 551.753 1518.7 555.236 1517.65 558.328C1516.65 561.421 1515.26 564.057 1513.5 566.238C1511.78 568.419 1509.66 570.096 1507.16 571.268C1504.65 572.407 1501.72 572.977 1498.37 572.977C1495.21 572.977 1492.35 572.309 1489.77 570.975C1487.23 569.64 1485.05 567.768 1483.23 565.359C1481.41 562.951 1480.01 560.118 1479.03 556.863C1478.09 553.576 1477.62 550.011 1477.62 546.17ZM1486.65 545.145V546.17C1486.65 548.807 1486.91 551.281 1487.43 553.592C1487.98 555.903 1488.81 557.938 1489.92 559.695C1491.06 561.453 1492.51 562.837 1494.27 563.846C1496.02 564.822 1498.12 565.311 1500.56 565.311C1503.56 565.311 1506.03 564.676 1507.99 563.406C1509.94 562.137 1511.49 560.46 1512.62 558.377C1513.8 556.294 1514.71 554.031 1515.36 551.59V539.822C1515 538.032 1514.45 536.307 1513.7 534.646C1512.98 532.954 1512.04 531.456 1510.87 530.154C1509.73 528.82 1508.31 527.762 1506.62 526.98C1504.93 526.199 1502.94 525.809 1500.66 525.809C1498.19 525.809 1496.06 526.329 1494.27 527.371C1492.51 528.38 1491.06 529.78 1489.92 531.57C1488.81 533.328 1487.98 535.379 1487.43 537.723C1486.91 540.034 1486.65 542.508 1486.65 545.145Z" fill="#EBEBEB"/>
<defs>
<filter id="filter0_d_0_1" x="0" y="498" width="1920" height="582" filterUnits="userSpaceOnUse" color-interpolation-filters="sRGB">
<feFlood flood-opacity="0" result="BackgroundImageFix"/>
<feColorMatrix in="SourceAlpha" type="matrix" values="0 0 0 0 0 0 0 0 0 0 0 0 0 0 0 0 0 0 127 0" result="hardAlpha"/>
<feOffset dy="-10"/>
<feComposite in2="hardAlpha" operator="out"/>
<feColorMatrix type="matrix" values="0 0 0 0 0 0 0 0 0 0 0 0 0 0 0 0 0 0 0.25 0"/>
<feBlend mode="normal" in2="BackgroundImageFix" result="effect1_dropShadow_0_1"/>
<feBlend mode="normal" in="SourceGraphic" in2="effect1_dropShadow_0_1" result="shape"/>
</filter>
<filter id="filter1_d_0_1" x="396.805" y="497" width="1125.39" height="103.35" filterUnits="userSpaceOnUse" color-interpolation-filters="sRGB">
<feFlood flood-opacity="0" result="BackgroundImageFix"/>
<feColorMatrix in="SourceAlpha" type="matrix" values="0 0 0 0 0 0 0 0 0 0 0 0 0 0 0 0 0 0 127 0" result="hardAlpha"/>
<feOffset dy="7.5"/>
<feComposite in2="hardAlpha" operator="out"/>
<feColorMatrix type="matrix" values="0 0 0 0 0 0 0 0 0 0 0 0 0 0 0 0 0 0 0.25 0"/>
<feBlend mode="normal" in2="BackgroundImageFix" result="effect1_dropShadow_0_1"/>
<feBlend mode="normal" in="SourceGraphic" in2="effect1_dropShadow_0_1" result="shape"/>
</filter>
<linearGradient id="paint0_linear_0_1" x1="960" y1="0" x2="960" y2="1080" gradientUnits="userSpaceOnUse">
<stop stop-color="#F45B69"/>
</linearGradient>
</defs>
</svg>
