<svg width="1920" height="1080" viewBox="0 0 1920 1080" fill="none" xmlns="http://www.w3.org/2000/svg">
<rect width="1920" height="1080" fill="#EEE8C8"/>
<path d="M1920 720H0V1080H1920V720Z" fill="url(#paint0_linear_0_1)"/>
<path d="M1920 0H0V360H1920V0Z" fill="url(#paint1_linear_0_1)"/>
<path d="M0 360C960 120 960 120 1920 360H0Z" fill="#EEE8C8"/>
<path d="M1920 720C960 960 960 960 0 720L1920 720Z" fill="#EEE8C8"/>
<rect x="135" y="160.031" width="400" height="400" rx="50" transform="rotate(-10.6657 135 160.031)" fill="#E7574C"/>
<rect x="112" y="127.031" width="400" height="400" rx="50" transform="rotate(-10.6657 112 127.031)" fill="#F1A762"/>
<path d="M1540.42 493.661C1551.31 485.064 1566.69 485.064 1577.58 493.661L1581 496.354C1589.2 502.825 1600.17 504.563 1609.97 500.944L1614.05 499.437C1627.07 494.628 1641.69 499.378 1649.4 510.921L1651.81 514.538C1657.61 523.226 1667.51 528.271 1677.95 527.857L1682.3 527.684C1696.16 527.134 1708.6 536.169 1712.36 549.529L1713.54 553.714C1716.37 563.769 1724.23 571.628 1734.29 574.459L1738.47 575.638C1751.83 579.4 1760.87 591.836 1760.32 605.704L1760.14 610.049C1759.73 620.487 1764.77 630.389 1773.46 636.189L1777.08 638.604C1788.62 646.31 1793.37 660.929 1788.56 673.949L1787.06 678.028C1783.44 687.827 1785.18 698.803 1791.65 707.004L1794.34 710.418C1802.94 721.314 1802.94 736.686 1794.34 747.582L1791.65 750.996C1785.18 759.197 1783.44 770.173 1787.06 779.972L1788.56 784.051C1793.37 797.071 1788.62 811.69 1777.08 819.396L1773.46 821.811C1764.77 827.611 1759.73 837.513 1760.14 847.951L1760.32 852.296C1760.87 866.164 1751.83 878.6 1738.47 882.362L1734.29 883.541C1724.23 886.372 1716.37 894.231 1713.54 904.286L1712.36 908.471C1708.6 921.831 1696.16 930.866 1682.3 930.316L1677.95 930.143C1667.51 929.729 1657.61 934.774 1651.81 943.462L1649.4 947.079C1641.69 958.622 1627.07 963.372 1614.05 958.563L1609.97 957.056C1600.17 953.437 1589.2 955.175 1581 961.646L1577.58 964.339C1566.69 972.936 1551.31 972.936 1540.42 964.339L1537 961.646C1528.8 955.175 1517.83 953.437 1508.03 957.056L1503.95 958.563C1490.93 963.372 1476.31 958.622 1468.6 947.079L1466.19 943.462C1460.39 934.774 1450.49 929.729 1440.05 930.143L1435.7 930.316C1421.84 930.866 1409.4 921.831 1405.64 908.471L1404.46 904.286C1401.63 894.231 1393.77 886.372 1383.71 883.541L1379.53 882.362C1366.17 878.6 1357.13 866.164 1357.68 852.296L1357.86 847.951C1358.27 837.513 1353.23 827.611 1344.54 821.811L1340.92 819.396C1329.38 811.69 1324.63 797.071 1329.44 784.051L1330.94 779.972C1334.56 770.173 1332.82 759.197 1326.35 750.996L1323.66 747.582C1315.06 736.686 1315.06 721.314 1323.66 710.418L1326.35 707.004C1332.82 698.803 1334.56 687.827 1330.94 678.028L1329.44 673.949C1324.63 660.929 1329.38 646.31 1340.92 638.604L1344.54 636.189C1353.23 630.389 1358.27 620.487 1357.86 610.049L1357.68 605.704C1357.13 591.836 1366.17 579.4 1379.53 575.638L1383.71 574.459C1393.77 571.628 1401.63 563.769 1404.46 553.714L1405.64 549.529C1409.4 536.169 1421.84 527.134 1435.7 527.684L1440.05 527.857C1450.49 528.271 1460.39 523.226 1466.19 514.538L1468.6 510.921C1476.31 499.378 1490.93 494.628 1503.95 499.437L1508.03 500.944C1517.83 504.563 1528.8 502.825 1537 496.354L1540.42 493.661Z" fill="#E7574C"/>
<path d="M1522.42 474.661C1533.31 466.064 1548.69 466.064 1559.58 474.661L1563 477.354C1571.2 483.825 1582.17 485.563 1591.97 481.944L1596.05 480.437C1609.07 475.628 1623.69 480.378 1631.4 491.921L1633.81 495.538C1639.61 504.226 1649.51 509.271 1659.95 508.857L1664.3 508.684C1678.16 508.134 1690.6 517.169 1694.36 530.529L1695.54 534.714C1698.37 544.769 1706.23 552.628 1716.29 555.459L1720.47 556.638C1733.83 560.4 1742.87 572.836 1742.32 586.704L1742.14 591.049C1741.73 601.487 1746.77 611.389 1755.46 617.189L1759.08 619.604C1770.62 627.31 1775.37 641.929 1770.56 654.949L1769.06 659.028C1765.44 668.827 1767.18 679.803 1773.65 688.004L1776.34 691.418C1784.94 702.314 1784.94 717.686 1776.34 728.582L1773.65 731.996C1767.18 740.197 1765.44 751.173 1769.06 760.972L1770.56 765.051C1775.37 778.071 1770.62 792.69 1759.08 800.396L1755.46 802.811C1746.77 808.611 1741.73 818.513 1742.14 828.951L1742.32 833.296C1742.87 847.164 1733.83 859.6 1720.47 863.362L1716.29 864.541C1706.23 867.372 1698.37 875.231 1695.54 885.286L1694.36 889.471C1690.6 902.831 1678.16 911.866 1664.3 911.316L1659.95 911.143C1649.51 910.729 1639.61 915.774 1633.81 924.462L1631.4 928.079C1623.69 939.622 1609.07 944.372 1596.05 939.563L1591.97 938.056C1582.17 934.437 1571.2 936.175 1563 942.646L1559.58 945.339C1548.69 953.936 1533.31 953.936 1522.42 945.339L1519 942.646C1510.8 936.175 1499.83 934.437 1490.03 938.056L1485.95 939.563C1472.93 944.372 1458.31 939.622 1450.6 928.079L1448.19 924.462C1442.39 915.774 1432.49 910.729 1422.05 911.143L1417.7 911.316C1403.84 911.866 1391.4 902.831 1387.64 889.471L1386.46 885.286C1383.63 875.231 1375.77 867.372 1365.71 864.541L1361.53 863.362C1348.17 859.6 1339.13 847.164 1339.68 833.296L1339.86 828.951C1340.27 818.513 1335.23 808.611 1326.54 802.811L1322.92 800.396C1311.38 792.69 1306.63 778.071 1311.44 765.051L1312.94 760.972C1316.56 751.173 1314.82 740.197 1308.35 731.996L1305.66 728.582C1297.06 717.686 1297.06 702.314 1305.66 691.418L1308.35 688.004C1314.82 679.803 1316.56 668.827 1312.94 659.028L1311.44 654.949C1306.63 641.929 1311.38 627.31 1322.92 619.604L1326.54 617.189C1335.23 611.389 1340.27 601.487 1339.86 591.049L1339.68 586.704C1339.13 572.836 1348.17 560.4 1361.53 556.638L1365.71 555.459C1375.77 552.628 1383.63 544.769 1386.46 534.714L1387.64 530.529C1391.4 517.169 1403.84 508.134 1417.7 508.684L1422.05 508.857C1432.49 509.271 1442.39 504.226 1448.19 495.538L1450.6 491.921C1458.31 480.378 1472.93 475.628 1485.95 480.437L1490.03 481.944C1499.83 485.563 1510.8 483.825 1519 477.354L1522.42 474.661Z" fill="#F1A762"/>
<path d="M575.003 520V510.732C575.003 507.917 575.501 504.93 576.496 501.772C577.526 498.58 579.002 495.507 580.924 492.555C582.881 489.569 585.232 486.977 587.979 484.78L594.57 490.135C592.407 493.224 590.519 496.451 588.906 499.815C587.326 503.145 586.537 506.715 586.537 510.526V520H575.003ZM601.366 520V510.732C601.366 507.917 601.864 504.93 602.86 501.772C603.89 498.58 605.366 495.507 607.288 492.555C609.245 489.569 611.596 486.977 614.342 484.78L620.933 490.135C618.771 493.224 616.883 496.451 615.269 499.815C613.69 503.145 612.901 506.715 612.901 510.526V520H601.366ZM646.499 544.922V592.5H634.347V487.045H646.499V525.767H647.529C649.382 521.682 652.163 518.438 655.87 516.035C659.612 513.598 664.589 512.379 670.803 512.379C676.192 512.379 680.912 513.461 684.963 515.623C689.014 517.752 692.155 521.03 694.386 525.458C696.651 529.852 697.784 535.447 697.784 542.244V592.5H685.632V543.068C685.632 536.786 684.002 531.929 680.741 528.496C677.514 525.029 673.034 523.295 667.301 523.295C663.319 523.295 659.749 524.136 656.591 525.819C653.467 527.501 650.996 529.955 649.176 533.182C647.391 536.409 646.499 540.322 646.499 544.922ZM753.176 594.148C745.555 594.148 738.982 592.466 733.455 589.102C727.963 585.703 723.723 580.966 720.737 574.89C717.784 568.78 716.308 561.674 716.308 553.572C716.308 545.471 717.784 538.331 720.737 532.152C723.723 525.939 727.877 521.098 733.198 517.631C738.553 514.13 744.8 512.379 751.94 512.379C756.06 512.379 760.128 513.066 764.144 514.439C768.16 515.812 771.816 518.043 775.112 521.133C778.407 524.188 781.033 528.239 782.99 533.285C784.946 538.331 785.925 544.544 785.925 551.925V557.074H724.959V546.57H773.567C773.567 542.107 772.674 538.125 770.889 534.624C769.139 531.122 766.633 528.359 763.372 526.333C760.145 524.308 756.334 523.295 751.94 523.295C747.1 523.295 742.912 524.497 739.377 526.9C735.875 529.268 733.18 532.358 731.292 536.168C729.404 539.979 728.46 544.064 728.46 548.423V555.426C728.46 561.399 729.49 566.462 731.55 570.616C733.644 574.735 736.544 577.876 740.252 580.039C743.959 582.167 748.267 583.232 753.176 583.232C756.369 583.232 759.252 582.785 761.827 581.893C764.436 580.966 766.684 579.593 768.572 577.773C770.46 575.92 771.919 573.62 772.949 570.874L784.689 574.169C783.453 578.151 781.376 581.652 778.459 584.673C775.541 587.66 771.936 589.994 767.645 591.676C763.354 593.324 758.531 594.148 753.176 594.148ZM816.562 487.045V592.5H804.41V487.045H816.562ZM850.971 487.045V592.5H838.819V487.045H850.971ZM905.359 594.148C898.219 594.148 891.954 592.449 886.565 589.05C881.21 585.652 877.022 580.897 874.001 574.787C871.014 568.677 869.521 561.536 869.521 553.366C869.521 545.128 871.014 537.936 874.001 531.792C877.022 525.647 881.21 520.875 886.565 517.477C891.954 514.078 898.219 512.379 905.359 512.379C912.499 512.379 918.747 514.078 924.102 517.477C929.492 520.875 933.68 525.647 936.666 531.792C939.687 537.936 941.197 545.128 941.197 553.366C941.197 561.536 939.687 568.677 936.666 574.787C933.68 580.897 929.492 585.652 924.102 589.05C918.747 592.449 912.499 594.148 905.359 594.148ZM905.359 583.232C910.783 583.232 915.246 581.841 918.747 579.061C922.248 576.28 924.84 572.624 926.522 568.093C928.204 563.562 929.045 558.653 929.045 553.366C929.045 548.08 928.204 543.154 926.522 538.588C924.84 534.023 922.248 530.333 918.747 527.518C915.246 524.703 910.783 523.295 905.359 523.295C899.936 523.295 895.473 524.703 891.972 527.518C888.47 530.333 885.878 534.023 884.196 538.588C882.514 543.154 881.673 548.08 881.673 553.366C881.673 558.653 882.514 563.562 884.196 568.093C885.878 572.624 888.47 576.28 891.972 579.061C895.473 581.841 899.936 583.232 905.359 583.232ZM974.976 592.5L950.878 513.409H963.648L980.743 573.963H981.567L998.456 513.409H1011.43L1028.11 573.757H1028.94L1046.03 513.409H1058.8L1034.71 592.5H1022.76L1005.46 531.74H1004.22L986.922 592.5H974.976ZM1105.34 594.148C1097.72 594.148 1091.14 592.466 1085.62 589.102C1080.13 585.703 1075.89 580.966 1072.9 574.89C1069.95 568.78 1068.47 561.674 1068.47 553.572C1068.47 545.471 1069.95 538.331 1072.9 532.152C1075.89 525.939 1080.04 521.098 1085.36 517.631C1090.72 514.13 1096.96 512.379 1104.1 512.379C1108.22 512.379 1112.29 513.066 1116.31 514.439C1120.32 515.812 1123.98 518.043 1127.27 521.133C1130.57 524.188 1133.2 528.239 1135.15 533.285C1137.11 538.331 1138.09 544.544 1138.09 551.925V557.074H1077.12V546.57H1125.73C1125.73 542.107 1124.84 538.125 1123.05 534.624C1121.3 531.122 1118.8 528.359 1115.53 526.333C1112.31 524.308 1108.5 523.295 1104.1 523.295C1099.26 523.295 1095.08 524.497 1091.54 526.9C1088.04 529.268 1085.34 532.358 1083.46 536.168C1081.57 539.979 1080.62 544.064 1080.62 548.423V555.426C1080.62 561.399 1081.65 566.462 1083.71 570.616C1085.81 574.735 1088.71 577.876 1092.41 580.039C1096.12 582.167 1100.43 583.232 1105.34 583.232C1108.53 583.232 1111.42 582.785 1113.99 581.893C1116.6 580.966 1118.85 579.593 1120.74 577.773C1122.62 575.92 1124.08 573.62 1125.11 570.874L1136.85 574.169C1135.62 578.151 1133.54 581.652 1130.62 584.673C1127.7 587.66 1124.1 589.994 1119.81 591.676C1115.52 593.324 1110.69 594.148 1105.34 594.148ZM1189.73 594.148C1182.11 594.148 1175.54 592.466 1170.01 589.102C1164.52 585.703 1160.28 580.966 1157.29 574.89C1154.34 568.78 1152.87 561.674 1152.87 553.572C1152.87 545.471 1154.34 538.331 1157.29 532.152C1160.28 525.939 1164.43 521.098 1169.76 517.631C1175.11 514.13 1181.36 512.379 1188.5 512.379C1192.62 512.379 1196.69 513.066 1200.7 514.439C1204.72 515.812 1208.37 518.043 1211.67 521.133C1214.96 524.188 1217.59 528.239 1219.55 533.285C1221.5 538.331 1222.48 544.544 1222.48 551.925V557.074H1161.52V546.57H1210.12C1210.12 542.107 1209.23 538.125 1207.45 534.624C1205.7 531.122 1203.19 528.359 1199.93 526.333C1196.7 524.308 1192.89 523.295 1188.5 523.295C1183.66 523.295 1179.47 524.497 1175.93 526.9C1172.43 529.268 1169.74 532.358 1167.85 536.168C1165.96 539.979 1165.02 544.064 1165.02 548.423V555.426C1165.02 561.399 1166.05 566.462 1168.11 570.616C1170.2 574.735 1173.1 577.876 1176.81 580.039C1180.52 582.167 1184.82 583.232 1189.73 583.232C1192.93 583.232 1195.81 582.785 1198.38 581.893C1200.99 580.966 1203.24 579.593 1205.13 577.773C1207.02 575.92 1208.48 573.62 1209.51 570.874L1221.25 574.169C1220.01 578.151 1217.93 581.652 1215.02 584.673C1212.1 587.66 1208.49 589.994 1204.2 591.676C1199.91 593.324 1195.09 594.148 1189.73 594.148ZM1253.12 544.922V592.5H1240.97V513.409H1252.71V525.767H1253.74C1255.59 521.751 1258.41 518.524 1262.18 516.087C1265.96 513.615 1270.83 512.379 1276.81 512.379C1282.16 512.379 1286.85 513.478 1290.86 515.675C1294.88 517.837 1298 521.133 1300.23 525.561C1302.47 529.955 1303.58 535.516 1303.58 542.244V592.5H1291.43V543.068C1291.43 536.855 1289.82 532.015 1286.59 528.548C1283.36 525.046 1278.93 523.295 1273.3 523.295C1269.43 523.295 1265.96 524.136 1262.9 525.819C1259.88 527.501 1257.5 529.955 1255.75 533.182C1254 536.409 1253.12 540.322 1253.12 544.922ZM1336.5 487.045V496.314C1336.5 499.129 1335.98 502.132 1334.95 505.325C1333.96 508.483 1332.48 511.555 1330.52 514.542C1328.6 517.494 1326.27 520.069 1323.52 522.266L1316.93 516.911C1319.09 513.821 1320.96 510.611 1322.54 507.282C1324.16 503.917 1324.96 500.33 1324.96 496.52V487.045H1336.5ZM1362.86 487.045V496.314C1362.86 499.129 1362.35 502.132 1361.32 505.325C1360.32 508.483 1358.84 511.555 1356.89 514.542C1354.97 517.494 1352.63 520.069 1349.89 522.266L1343.29 516.911C1345.46 513.821 1347.33 510.611 1348.91 507.282C1350.52 503.917 1351.33 500.33 1351.33 496.52V487.045H1362.86Z" fill="url(#paint2_linear_0_1)"/>
<defs>
<linearGradient id="paint0_linear_0_1" x1="1920" y1="1080" x2="0" y2="720" gradientUnits="userSpaceOnUse">
<stop stop-color="#E7574C"/>
<stop offset="1" stop-color="#F29C46"/>
</linearGradient>
<linearGradient id="paint1_linear_0_1" x1="0" y1="0" x2="1920" y2="360" gradientUnits="userSpaceOnUse">
<stop stop-color="#E7574C"/>
<stop offset="1" stop-color="#F29C46"/>
</linearGradient>
<linearGradient id="paint2_linear_0_1" x1="1370" y1="453" x2="568" y2="628" gradientUnits="userSpaceOnUse">
<stop stop-color="#71B390"/>
<stop offset="0.717082" stop-color="#8CD587"/>
</linearGradient>
</defs>
</svg>
